<svg id="Untitled-1_xA0_Image_1_" xmlns="http://www.w3.org/2000/svg" viewBox="0 0 296.4 313.68">
    <g fill-rule="evenodd" clip-rule="evenodd" id="myFace">
        <path fill="#8B8B8B"
              d="M95.28 134.64c1.397-1.165 5.543.178 6.72-2.16-1.787-1.013-3.777-1.823-4.08-4.32 1.476-.814 3.828-2.049 4.56-4.32-2.941-2.994-4.466 2.589-5.76 4.32-1.107-.013-2.347.106-3.12-.24-1.428-6.665-.853-10.523-1.92-15.84-3.56-17.743 15.81-27.137 32.16-24.96 2.097.279 12.809 8.142 14.16 10.08 1.598 2.292 2.895 5.125 2.16 8.64-5.377 2.798-7.854 10.123-12.96 14.4-5.836 4.89-13.248 6.795-17.76 12.24-2.856 3.446-9.98 7.101-14.16 2.16zM123.12 90c-4.206-2.121-16.421.022-20.64 1.68-5.748 2.258-10.34 11.855-8.64 18 6.307-9.771 27.228-7.827 36.72-1.44 3.587-.585 6.827-4.819 3.84-8.4-7.048.38-6.464-7.412-11.28-9.84zM97.2 111.12c2.071-1.049 4.606-1.634 5.76-3.6-2.262-1.461-5.752.575-5.76 3.6zm-3.36 8.4c-.192 7.164 4.383 1.766 6.96 1.2 2.873-.631 8.361.384 10.32 1.92.705.552 1.03 2.41 2.16 2.64 2.24.457 10.382-4.354 11.76-6 6.67-7.961-8.153-10.61-16.56-9.6-6.463.777-14.459 3.101-14.64 9.84z"/>
        <path fill="#6C6C6C"
              d="M134.4 99.84c2.987 3.582-.253 7.815-3.84 8.4-9.492-6.387-30.414-8.332-36.72 1.44-1.7-6.145 2.892-15.742 8.64-18 4.219-1.658 16.435-3.801 20.64-1.68 4.816 2.428 4.232 10.22 11.28 9.84zM97.68 102c6.791-2.578 19.057-.603 25.2-2.4-1.233-11.117-24.501-6.483-25.2 2.4z"/>
        <path fill="#8B8B8B" d="M200.4 94.08c-.694-.106-1.095-.506-1.2-1.2.691-.71 1.699.719 1.2 1.2z"/>
        <path fill="#393939"
              d="M122.88 99.6c-6.143 1.797-18.409-.178-25.2 2.4.699-8.883 23.967-13.517 25.2-2.4zm89.76 27.84c-13.324-8.916-24.991-19.488-44.88-21.84 2.362-10.958 15.423-5.867 23.521-.96 4.072 2.468 3.312 3.29 8.64 3.84 8.962.925 10.69 11.787 12.719 18.96z"/>
        <path fill="#A6A6A6" d="M102.96 107.52c-1.153 1.966-3.688 2.551-5.76 3.6.008-3.025 3.498-5.061 5.76-3.6z"/>
        <path fill="#6C6C6C"
              d="M108.48 109.68c8.407-1.01 23.23 1.638 16.56 9.6-1.378 1.646-9.521 6.457-11.76 6-1.129-.23-1.455-2.087-2.16-2.64-1.959-1.536-7.448-2.551-10.32-1.92-2.577.566-7.152 5.963-6.96-1.2.181-6.739 8.177-9.063 14.64-9.84zm-12 10.56c5.483-2.981 16.607.473 19.44-6-5.091-5.491-21.281-2.026-19.44 6z"/>
        <path fill="#393939"
              d="M115.92 114.24c-2.833 6.473-13.957 3.019-19.44 6-1.841-8.026 14.349-11.491 19.44-6zm90.24 21.84c-9.406-5.998-21.261-10-35.76-9.6-.408-3.577 2.206-6.09 5.76-6.48 11.748-1.289 24.91 9.989 30 16.08z"/>
        <path fill="#8B8B8B"
              d="M240.479 136.56c-1.003-.277-2.322-.237-2.88-.96.587-1.76 4.54-.748 2.88.96zm-103.199 5.76c-3.065 1.206-5.376-1.639-5.76-3.12 2.861-.836 4.223 1.838 5.76 3.12z"/>
        <path fill="#A6A6A6"
              d="M158.4 141.6c8.146 7.774 23.653 8.72 36.72 8.88 5.81.071 13.316 2.019 14.399 7.92-.202 1.237-1.723 1.157-2.159 2.159-1.006.046-.742-1.178-1.92-.96-.821 3.187.289 6.671-2.881 8.16.03 1.171-.175 2.576.48 3.12-.518.442-1.182.738-1.68 1.2 1.097 1.67.916 3.312.239 5.28h-2.159c-2.469 6.511 5.783 7.002 3.359 13.68-.709.891-1.816 1.384-2.399 2.4.186 8.875-2.947 15.306-7.2 20.399-.185 5.683-1.223 10.606-2.641 15.601-2.536 1.161-5.038-.46-6.72 1.68-7.011-.894-4.13-9.558-6.72-14.16.721-.799 2.006-1.034 2.64-1.92-.242-.397-1.02-.261-1.439-.48 8.391-9.229 4.297-23.013-1.92-33.359-3.466-5.769-5.758-10.871-8.16-15.36-1.023-1.911-4.293-3.586-1.681-6.72-2.11-6.078-7.048-10.7-8.158-17.52zm31.2 65.52c.516.655 2.227 1.114 2.88.24.781-2.849-3.511-3.255-2.88-.24zm-9.121 10.08c1.218 1.503 3.061 2.38 5.28 2.88 1.17-2.64-4.969-8.484-5.28-2.88z"/>
        <path fill="#6C6C6C"
              d="M142.56 159.12c2.791 2.311 9.018.521 11.76 1.2-.875 7.284-10.324 5.995-12.72 11.76-2.029.269-2.991-.529-4.32-.96-1.197 1.396-1.338 3.533-2.88 5.04-3.013-1.25-4.524-4.56-8.88-4.8-3.734-.207-15.49 3.982-14.4-3.841.702-5.039 12.32-2.203 16.32-3.6 2.474-2.052.982-5.725 1.68-7.68-5.059-.987-7.875-11.435.72-10.8 6.917.512 12.61 6.358 12.72 13.681zm-16.08-10.08c-.297 2.777 10.949 6.918 13.44 6.72 3.417-5.079-12.903-11.736-13.44-6.72zm-14.64-3.12c3.794-.777 4.815 7.618.48 7.44-3.189-.131-3.775-6.765-.48-7.44z"/>
        <path fill="#393939" d="M139.92 155.76c-2.491.198-13.737-3.943-13.44-6.72.537-5.016 16.857 1.641 13.44 6.72z"/>
        <path fill="#6C6C6C" d="M91.92 170.4c-1.54 7.1-8.188 9.092-10.32 15.6-1.748-7.403 4.088-14.585 10.32-15.6z"/>
        <path fill="#A6A6A6"
              d="M110.16 174.24c-.22.806-.446.119-1.2.24 1.263.74-4.428 1.423-4.56 0 2.249-.258 3.644-1.834 5.76-.24zm-10.32 2.16c-1.967 2.679-6.543 6.892-10.08 9.6-4.601-4.839 5.674-12.811 10.08-9.6z"/>
        <path fill="#393939"
              d="M273.6 193.2c-2.675-1.996-1.374-8.223-5.04-9.84-2.42-1.068-6.518-.046-7.199-2.4-1.507-5.199 10.23-6.7 13.68-3.84 1.657 4.687 1.534 12.757-1.441 16.08z"/>
        <path fill="#6C6C6C"
              d="M169.68 182.88c4.019.658 8.12 5.258 8.16 11.521-2.744.584-1.418-2.902-3.6-2.881-.913-3.487-3.845-4.955-4.56-8.64zm1.92 19.68c1.913 3.659-1.353 6.994-4.08 4.08-13.088 3.431-23.377-6.751-36.959-7.439-.797 1.198-7.249 1.248-7.44-1.2.673-1.887 4.792-.327 6.24-1.44-4.979-6.557-21.846-5.341-32.64-7.68 2.81-4.916 13.359-4.819 19.44-5.04 21.938-.798 34.803 16.761 55.439 18.719zm-19.68-1.2c1.709 2.082 6.029 2.729 9.6 2.159-1.62-2.008-6.464-3.254-9.6-2.159zm16.8-15.12c-.463.569-1.216.569-1.68 0 .251-.884 1.606-1.386 1.68 0zm-72.24 3.12c.412 4.552-7.33 5.8-7.68 1.92-.279-3.095 5.486-4.063 7.68-1.92z"/>
        <path fill="#393939" d="M161.52 203.52c-3.57.569-7.891-.077-9.6-2.159 3.136-1.096 7.98.15 9.6 2.159z"/>
        <path fill="#A6A6A6"
              d="M119.28 202.8c-2.004.555-4.565.423-6.48-.24 1.204-2.186 4.849-.16 6.48.24zm1.2.72c5.025.415 12.782.179 15.6 3.601-.042 1.357-.595 4.176-2.16 4.8-4.036-3.245-9.305-5.256-13.44-8.401z"/>
        <path fill="#8B8B8B" d="M192.479 207.36c-.653.874-2.364.415-2.88-.24-.63-3.015 3.662-2.609 2.88.24z"/>
        <path fill="#393939" d="M268.32 206.4c-1.85 13.177-14.236-3.144 0 0z"/>
        <path fill="#8B8B8B" d="M185.76 220.08c-2.22-.5-4.062-1.377-5.28-2.88.31-5.604 6.449.24 5.28 2.88z"/>
        <path fill="#6C6C6C"
              d="M119.76 219.6c-.03.53-1.018.103-1.44.24.388.362 1.249.884.72 1.44-4.384-.034-14.621 3.799-11.52-3.36 4.478-1.118 9.24-.07 12.24 1.68z"/>
        <path fill="#A6A6A6"
              d="M201.12 220.32c.202 1.002-.467 1.133-.48 1.92-6.754 1.959-2.799-6.575.48-1.92zm-3.6 4.56c-.781.398-1.259.073-1.68-.479.343-.731 1.538-.302 1.68.479z"/>
        <path fill="#6C6C6C"
              d="M183.6 258.72c.724.203 1.353 1.354.721 2.16-.807-.153-.77-1.151-.721-2.16zm-9.121 2.88c.015 1.825-3.204 2.556-3.84.96.115-1.395 3.187-2.335 3.84-.96zm3.601 18.48c-.158 1.121-.799 1.762-1.92 1.92.17-.89-.41-1.03-.24-1.92.779-.306 1.7-1.309 2.16 0zm5.52 2.88c.033 1.081-1.157 1.081-1.92.72.061-1.038 1.304-1.573 1.92-.72z"/>
        <path fill="#A6A6A6"
              d="M154.08 295.2c-.037 1.311.667 1.663.72 3.359-4.934 7.857-7.008-.214-12.48-2.159-2.829-1.007-5.353.7-5.52-2.641 4.99-3.683 13.245-1.727 17.28 1.441z"/>
        <path fill="#6C6C6C" d="M90 313.68H70.8c3.778-5.342 7.482-10.758 9.6-17.76 2.752 6.368 6.348 11.892 9.6 17.76z"/>
        <path fill="#393939" d="M236.64 301.68c3.313-.111 4.685 8.779 1.681 8.641-2.363-.11-2-6.027-1.681-8.641z"/>
        <path fill="#A6A6A6"
              d="M152.88 313.68h-4.8c-1.585-2.975-5.039-4.081-5.76-7.92 1.273-.9 4.713.431 6-.96.263-1.062-.407-1.193-.48-1.92 1.678-1.094 2.595.951 3.601 1.92.649-.31.853-1.066 1.92-.96.892 2.192 3.581 3.718 4.08 5.521-1.212 1.748-3.107 2.813-4.561 4.319z"/>
        <path fill="#6C6C6C"
              d="M200.88 304.08c.601-.041.751.368.96.72-.204 1.156-.82 1.899-2.16 1.92.014-1.266 1.078-1.483 1.2-2.64zm78.48 9.6h-8.16c-.196-1.004-1.466-.934-1.44-2.16 2.53-.411 6.628 1.229 9.601 1.921-.001.079-.001.159-.001.239z"/>
        <path fill="#D2D2D2" id="myFaceOutline"
              d="M287.52 313.68h-1.92c-4.916-2.62-12.086-3.52-18.479-5.52-9.57-2.994-27.508-8.266-29.76-17.28-1.317-5.271 1.633-14.118 2.159-20.16.998-11.441.089-20.851 2.4-29.279 1.183-4.312 4.45-14.114 7.92-15.841 6.144-3.056 13.135-.957 17.521-5.76 6.491-7.11 8.647-17.25 12-28.56.949-3.206 3.614-5.804 3.84-8.88.334-4.565-2.097-9.744-1.92-15.12.187-5.693 1.406-10.187.96-16.56-.66-9.421 4.79-16.52 4.8-24.48.023-20.147.395-46.262-12.48-55.2-1.794-1.246-6.334-2.099-8.399-3.6-7.218-5.246-9.475-16.899-15.601-22.32-7.879-6.973-22.494-13.124-35.52-17.52-6.257-2.112-11.97-7.166-17.521-8.64-15.069-4.003-38.672-.496-50.399 4.32-13.51 5.548-21.508 15.944-28.08 29.04.252 1.463 2.871.797 1.92 1.2-6.558 10.077-10.084 20.458-16.08 30.48-1.747 2.921-5.039 4.274-7.2 6.96-7.088 8.81-7.44 19.703-7.44 33.36 0 .898-.026 1.994-.24 2.88-3.585 14.805-13.237 25.836-15.12 40.319-1.215 9.347-3.478 17.734-3.12 29.28.593 19.117 5.045 32.066 10.08 45.84 1.251 3.422 1.823 7.118 3.6 10.561 1.574 3.047 3.936 5.722 4.56 9.359.863 5.029-1.443 15.882-4.32 20.16-4.134 6.147-21.404 10.943-29.52 13.44-12.777 3.932-29.602 3.765-40.08 8.64-4.43 2.062-8.903 6.405-16.08 2.88v-1.439c18.116-7.201 45.429-10.148 65.76-17.28 5.238-1.837 14.299-4.204 16.56-7.2 2.718-3.601 4.932-15.488 4.08-20.16-.615-3.371-4.738-7.666-6.72-11.76-8.284-17.111-14.125-38.354-12.72-63.6.747-13.416 2.012-30.662 10.08-39.12-2.188-6.36 3.006-9.456 5.04-13.44 2.35-4.604 4.466-10.894 5.28-16.8.507-3.681-.007-9.156 1.2-12.96 7.69-24.223 20.674-46.857 35.76-65.76 6.786-8.503 17.643-17.545 31.2-19.44 12.116-1.694 33.006-5.871 45.841-.48 3.826 1.607 7.553 3.836 11.52 5.76 13.276 6.437 32.364 10.19 41.521 21.6 5.036 6.276 6.578 15.608 13.92 20.16 2.408 1.493 5.628 1.533 8.159 3.36 12.943 9.338 10.818 31.027 11.28 52.08.246 11.197-3.085 17.916-2.88 29.52.097 5.467-.682 11.018-.96 16.799-.262 5.429 2.064 10.896 1.2 15.36-.517 2.663-3.216 5.027-4.32 8.4-3.857 11.783-5.913 23.34-12.96 31.439-3.943 4.533-10.061 2.651-16.8 5.04-5.148 1.825-8.82 21.717-9.36 28.32-.513 6.274.371 11.776-.479 18-.717 5.238-3.487 12.44-1.92 16.32 6.383 15.812 35.617 13.576 48.237 23.282z"/>
        <path fill="#A6A6A6"
              d="M0 307.68c7.177 3.525 11.65-.818 16.08-2.88 10.478-4.875 27.303-4.708 40.08-8.64 8.116-2.497 25.386-7.293 29.52-13.44 2.877-4.278 5.183-15.131 4.32-20.16-.624-3.638-2.986-6.312-4.56-9.359-1.777-3.442-2.349-7.139-3.6-10.561-5.035-13.773-9.487-26.723-10.08-45.84-.358-11.546 1.905-19.934 3.12-29.28 1.883-14.483 11.535-25.515 15.12-40.32.214-.886.24-1.982.24-2.88 0-13.657.352-24.55 7.44-33.36 2.161-2.686 5.453-4.039 7.2-6.96 5.996-10.022 9.522-20.403 16.08-30.48.951-.403-1.668.263-1.92-1.2 6.572-13.096 14.57-23.492 28.08-29.04 11.728-4.816 35.33-8.323 50.399-4.32 5.551 1.475 11.264 6.528 17.521 8.64 13.025 4.396 27.641 10.547 35.52 17.52 6.126 5.421 8.383 17.074 15.601 22.32 2.065 1.501 6.605 2.354 8.399 3.6 12.875 8.938 12.504 35.053 12.48 55.2-.01 7.96-5.46 15.059-4.8 24.48.446 6.374-.773 10.867-.96 16.56-.177 5.376 2.254 10.555 1.92 15.12-.226 3.076-2.891 5.674-3.84 8.88-3.353 11.31-5.509 21.449-12 28.56-4.386 4.803-11.377 2.704-17.521 5.76-3.47 1.727-6.737 11.529-7.92 15.841-2.312 8.429-1.402 17.838-2.4 29.279-.526 6.042-3.477 14.889-2.159 20.16 2.252 9.015 20.189 14.286 29.76 17.28 6.394 2 13.563 2.899 18.479 5.52h-3.12c-6.176-.76-14.569-6.964-21.359-6.479-1.848.132-3.029 2.68-4.561 2.64-1.59-.041-2.84-3.52-4.08-4.8-4.677-4.83-15.156-7.123-16.56-13.92-1.192-5.777 1.67-14.343 2.16-20.4.949-11.726-.148-20.722 2.64-30.239 1.861-6.353 5.582-16.494 12.48-18 3.407-.744 5.426.384 8.399-.721 8.143-3.022 13.415-14.929 15.841-24.479 1.062-4.183 3.911-10.217 4.079-14.4.213-5.255-2.223-10.973-1.68-16.8.44-4.728 1.163-9.041.96-14.16-.396-9.995 5.194-17.72 5.28-25.68.205-19.12-.517-44.037-12-54-2.046-1.776-7.281-2.32-9.36-4.32-5.881-5.657-9.225-15.872-14.399-21.36-8.842-9.378-26.644-13.187-39.601-19.44-7.684-3.708-12.811-7.402-23.04-8.4-13.317-1.3-29.089 1.485-39.6 5.52-10.214 3.921-17.754 11.826-23.04 21.84 18.637-2.529 44.003-.383 65.52.72 3.925.201 8.851-2.005 12-.72 4.804 1.96 7.36 7.441 11.761 10.56 4.792 3.396 9.923 6.544 12 10.08 1.927 3.281 7.95 11.078 4.08 15.36-4.397 4.865-26.264 4.761-15.12 14.88-.475 1.206-1.385 1.975-1.92 3.12 1.113 1.74 3.188 4.484.96 6.24-10.849-5.145-25.83-13.045-41.28-14.88-8.688-1.032-22.06 4.562-25.44 9.84-.981 1.532-.8 3.161-2.16 5.28 1.891 3.803 1.401 10.532-1.92 13.92-1.582 1.614-3.351.926-3.84 2.4-1.35 4.067 9.424 12.291 0 8.4.461 4.094 4.197 11.644 3.84 14.64-.643.521-1.09.325-1.92.24.974.159 9.256 8.144 4.56 9.6-2.918.905-3.841-4.286-5.04-6-7.106-10.152-20.83-10.218-20.64 6.48-7.615.137-.419-11.983-8.4-12.24-4.736-.153-3.966 9.67-8.4 5.52-9.387 5.546-18.201 16.769-23.76 26.64-4.767 8.463-1.692 25.736.72 35.28 6.071-1.277 5.958-12.809 11.28-14.881 3.593-1.398 10.193 2.816 10.32 5.521.109 2.346-3.402 2.687-3.84 5.04-.24 1.286.465 2.04.48 3.36.078 6.685-8.917 10.57-3.36 17.52-2.843 6.608 2.226 19.836-4.32 20.64-2.047 7.999 6.768 17.04 3.6 28.08-.42-.459-.509-1.251-.72-1.92-2.637 4.125-2.657 14.352-7.44 15.12-1.243.2-2.125-.718-3.36-.72-10.078-.021-14.521 11.973-25.92 12.479-1.904.085-2.668-1.107-4.32-.96-4.895.439-9.947 2.915-15.6 3.601C24.163 305.93 14.905 313.11 0 312.72v-5.04zm109.44-175.2c4.513-5.444 11.924-7.35 17.76-12.24 5.105-4.278 7.583-11.602 12.96-14.4.734-3.515-.562-6.348-2.16-8.64-1.351-1.938-12.063-9.801-14.16-10.08-16.35-2.177-35.72 7.217-32.16 24.96 1.067 5.317.492 9.175 1.92 15.84.773.347 2.013.227 3.12.24 1.294-1.731 2.819-7.314 5.76-4.32-.732 2.271-3.084 3.506-4.56 4.32.303 2.497 2.293 3.307 4.08 4.32-1.177 2.338-5.323.995-6.72 2.16 4.18 4.941 11.304 1.286 14.16-2.16zm89.76-39.6c.105.694.506 1.094 1.2 1.2.499-.481-.509-1.91-1.2-1.2zm-67.68 46.32c.383 1.481 2.695 4.326 5.76 3.12-1.537-1.282-2.899-3.956-5.76-3.12z"/>
        <path fill="#6C6C6C"
              d="M248.4 313.68h-42.48c-1.082-5.125-2.558-8.192-1.68-12-1.138-.693-1.146 1.644-1.681 1.681-2.599-.842-4.858-2.021-6-4.32-1.701.379-1.759 2.401-2.88 3.36-3.278-1.162-5.354 3.15-9.359.72 2.654-5.215 7.521-14.41 14.159-7.44.822.698.114 2.927 1.44 3.12 6.195-1.214.647-6.504-.479-9.359-1.696.304-.924 3.076-2.641 3.359-1.563.203-.552-2.168-1.92-2.16-2.992.429-6.907 5.209-9.12.721.882-2.087 4.811-1.126 6.48-1.2-2.841-3.208-.335-8.403-1.92-11.76-1.41-2.985-5.864-1.473-6.721-5.28-3.956.398-10.409 4.87-11.279-.72-1.087-6.975 8.528-7.184 12.72-8.4-.085-5.031 3.417-7.729 5.76-11.04 14.426-4.753 29.195-24.934 28.8-44.4-.032-1.612-1.059-3.186-.72-4.8.222-1.055 2.454-1.957 2.88-3.6.968-3.733-2.148-9.372 2.641-10.08.81-3.571-1.107-7.305.239-10.32.783-.577 2.25-.47 3.12-.96 1.704-6.259.642-12.519 4.32-18.72 1.074-1.812 2.771-2.832 2.88-4.08.669-7.703-7.867-10.553-12.72-14.16-1.321 2.874-1.776 6.296-4.32 8.4-6.37-5.281-16.063-5.068-21.36-11.28-.906-1.063-.88-2.758-1.68-3.84-2.604-3.522-11.66-6.213-16.08-3.6.611 2.91 3.818 4.5 5.04 6-2.846.18-10.198 2.88-14.399 2.88-6.525 0-17.271-10.208-17.28-15.84-.009-4.481 8.537-8.15 12.24-8.64 16.202-2.142 27.173 8.317 38.399 11.52-7.187-8.532-15.35-16.498-30-17.28-7.492-.4-14.674 5.6-21.12 1.44-3.628-4.256-.306-10.614 3.601-12.24 6.358 3.412 10.185-4.926 16.8-5.04 7.287-.125 17.585 5.98 24.479 8.64 3.22 1.242 7.519 1.347 10.32 3.36 3.876 2.785 4.88 6.654 10.08 9.36 2.471 1.285 3.992 3.584 6.48 5.28 5.913-8.287 15.374 2.662 17.279 8.88 2.075-3.226-.03-10.179-.24-15.12-.356-8.424 4.386-15.397 3.601-22.56-.229-2.098-2.204-4.858-2.88-6.96-2.878-8.95-2.076-18.832-6.48-25.68-3.418-5.315-10.882-7.465-16.319-10.32-13.429-10.577-39.03-4.457-60.48-5.76-9.371-.569-20.914-4.09-29.04 0 6.269-15.752 26.562-22.27 47.04-23.76 15.476-1.126 23.642 2.996 33.6 7.92 12.986 6.421 30.091 9.854 39.601 19.2 6.227 6.12 8.427 16.949 15.84 22.56 5.186 3.925 10.173 4.037 13.44 10.08 6.066 11.221 8.001 30.817 6.72 47.76-.62 8.197-5.354 15.993-5.521 25.44-.126 7.22-1.372 13.327-1.439 19.68-.04 3.732 1.73 7.257 1.439 11.279-.622 8.6-4.526 21.792-8.159 27.12-3.847 5.642-10.865 12.941-19.681 7.681-.317 4.024-4.081 5.244-6.24 8.159-7.33 9.899-8.667 25.414-8.64 40.561.014 7.453-4.748 19.504-1.68 25.92 3.388 7.082 16.324 9.121 13.2 20.638zm-14.16-65.76c5.173-9.551 3.44-24.646 12.96-26.16-2.914-4.824-1.153-13.806 3.6-17.279-1.71-5.651-1.2-19.345 3.84-22.801 4.704 7.811-2.009 14.984-3.359 20.4 3.973.36 5.483-4.521 9.12-4.561 1.04-6.601 3.717-13.755-.48-19.199-.592-.769-1.932-.193-2.4-1.2-1.099-2.364 1.88-7.047 4.801-6.72 1.667.186 2.325 2.604 4.56 2.64 2.031.032 8.495-3.132 9.6-4.56 2.001-2.587 1.406-11.75 1.681-15.84.689-10.292 5.682-18.608 5.76-27.36.137-15.39-.407-34.835-7.2-44.88-3.259-4.819-10.303-7.027-14.16-11.28-5.718-6.305-8.747-15.958-15.119-21.6-5.989-5.302-17.688-11.305-24.721-13.92-4.566-1.698-9.421-2.311-13.68-4.56-4.152-2.193-8.327-4.884-12.24-6.24-18.754-6.499-51.977 2.013-59.76 14.4 15.696 2.211 34.426 3.271 51.12 2.88 15.812-.371 29.865.183 40.08 8.16 4.759 3.717 10.562 9.905 12.239 15.36 1.449 4.708 1.715 9.896 4.08 15.6 1.549 3.734 4.472 6.521 4.08 12-.566 7.934-4.269 14.773-3.6 23.04 1 12.359 7.386 18.98 6 32.4-1.142 11.054-7.84 22.861-8.88 35.52 7.724 2.336 2.493 16.646 1.439 21.12-3.876 16.47-9.992 31.538-12.72 44.16 1.385 1.849 2.953 1.23 3.359.48zm-34.32-139.44c-5.328-.55-4.567-1.372-8.64-3.84-8.098-4.907-21.158-9.998-23.521.96 19.889 2.352 31.556 12.924 44.88 21.84-2.028-7.173-3.756-18.035-12.719-18.96zM176.16 120c-3.554.39-6.168 2.903-5.76 6.48 14.499-.4 26.354 3.602 35.76 9.6-5.09-6.091-18.252-17.369-30-16.08zm61.44 15.6c.558.723 1.877.683 2.88.96 1.659-1.708-2.294-2.72-2.88-.96zm37.44 41.52c-3.449-2.86-15.187-1.359-13.68 3.84.682 2.354 4.779 1.332 7.199 2.4 3.666 1.617 2.365 7.844 5.04 9.84 2.976-3.323 3.099-11.393 1.441-16.08zm-6.72 29.28c-14.236-3.144-1.85 13.177 0 0zm-30 103.92c3.004.139 1.633-8.752-1.681-8.641-.318 2.615-.681 8.532 1.681 8.641z"/>
        <path fill="#393939"
              d="M230.88 247.44c2.728-12.622 8.844-27.69 12.72-44.16 1.054-4.475 6.284-18.784-1.439-21.12 1.04-12.659 7.738-24.466 8.88-35.52 1.386-13.42-5-20.041-6-32.4-.669-8.267 3.033-15.106 3.6-23.04.392-5.479-2.531-8.266-4.08-12-2.365-5.704-2.631-10.892-4.08-15.6-1.678-5.455-7.48-11.643-12.239-15.36-10.215-7.978-24.269-8.531-40.08-8.16-16.694.392-35.424-.669-51.12-2.88 7.783-12.388 41.006-20.899 59.76-14.4 3.913 1.356 8.088 4.047 12.24 6.24 4.259 2.249 9.113 2.862 13.68 4.56 7.033 2.615 18.731 8.618 24.721 13.92 6.372 5.642 9.401 15.295 15.119 21.6 3.857 4.253 10.901 6.46 14.16 11.28 6.793 10.045 7.337 29.49 7.2 44.88-.078 8.752-5.07 17.068-5.76 27.36-.274 4.09.32 13.253-1.681 15.84-1.104 1.428-7.568 4.592-9.6 4.56-2.234-.036-2.893-2.454-4.56-2.64-2.921-.327-5.899 4.355-4.801 6.72.469 1.007 1.809.432 2.4 1.2 4.197 5.444 1.521 12.599.48 19.199-3.637.04-5.147 4.921-9.12 4.561 1.351-5.416 8.063-12.59 3.359-20.4-5.04 3.456-5.55 17.149-3.84 22.801-4.753 3.474-6.514 12.455-3.6 17.279-9.52 1.515-7.787 16.609-12.96 26.16-.405.75-1.973 1.369-3.359-.48z"/>
        <path fill="#8B8B8B"
              d="M282.479 313.68h-3.119v-.239c-2.973-.691-7.07-2.332-9.601-1.921-.025 1.227 1.244 1.156 1.44 2.16h-22.8c3.124-11.517-9.812-13.556-13.2-20.64-3.068-6.416 1.693-18.467 1.68-25.92-.027-15.146 1.31-30.661 8.64-40.561 2.159-2.915 5.923-4.135 6.24-8.159 8.815 5.261 15.834-2.039 19.681-7.681 3.633-5.328 7.537-18.521 8.159-27.12.291-4.022-1.479-7.547-1.439-11.279.067-6.354 1.313-12.46 1.439-19.68.166-9.447 4.9-17.243 5.521-25.44 1.281-16.943-.653-36.54-6.72-47.76-3.268-6.043-8.255-6.155-13.44-10.08-7.413-5.611-9.613-16.44-15.84-22.56-9.51-9.346-26.614-12.778-39.601-19.2-9.958-4.924-18.124-9.046-33.6-7.92-20.479 1.49-40.771 8.008-47.04 23.76 8.126-4.09 19.669-.569 29.04 0 21.45 1.304 47.052-4.816 60.48 5.76 5.438 2.855 12.901 5.004 16.319 10.32 4.404 6.849 3.603 16.73 6.48 25.68.676 2.102 2.65 4.862 2.88 6.96.785 7.163-3.957 14.136-3.601 22.56.21 4.941 2.315 11.894.24 15.12-1.905-6.218-11.366-17.167-17.279-8.88-2.488-1.696-4.01-3.995-6.48-5.28-5.2-2.706-6.204-6.575-10.08-9.36-2.802-2.013-7.101-2.118-10.32-3.36-6.895-2.66-17.192-8.765-24.479-8.64-6.615.114-10.441 8.452-16.8 5.04-3.906 1.626-7.229 7.984-3.601 12.24 6.446 4.16 13.628-1.84 21.12-1.44 14.65.782 22.813 8.748 30 17.28-11.227-3.203-22.197-13.662-38.399-11.52-3.703.49-12.249 4.159-12.24 8.64.01 5.632 10.755 15.84 17.28 15.84 4.201 0 11.554-2.7 14.399-2.88-1.222-1.5-4.429-3.09-5.04-6 4.42-2.613 13.476.078 16.08 3.6.8 1.082.773 2.776 1.68 3.84 5.297 6.212 14.99 5.999 21.36 11.28 2.544-2.104 2.999-5.527 4.32-8.4 4.853 3.607 13.389 6.457 12.72 14.16-.108 1.248-1.806 2.269-2.88 4.08-3.679 6.201-2.616 12.461-4.32 18.72-.87.49-2.337.383-3.12.96-1.347 3.016.57 6.749-.239 10.32-4.789.708-1.673 6.347-2.641 10.08-.426 1.643-2.658 2.545-2.88 3.6-.339 1.614.688 3.188.72 4.8.396 19.467-14.374 39.647-28.8 44.4-2.343 3.312-5.845 6.009-5.76 11.04-4.191 1.217-13.807 1.426-12.72 8.4.87 5.59 7.323 1.118 11.279.72.856 3.808 5.311 2.295 6.721 5.28 1.585 3.356-.921 8.552 1.92 11.76-1.67.074-5.599-.887-6.48 1.2 2.213 4.488 6.128-.292 9.12-.721 1.368-.008.356 2.363 1.92 2.16 1.717-.283.944-3.056 2.641-3.359 1.127 2.855 6.675 8.146.479 9.359-1.326-.193-.618-2.422-1.44-3.12-6.638-6.97-11.505 2.226-14.159 7.44 4.006 2.431 6.081-1.882 9.359-.72 1.121-.959 1.179-2.981 2.88-3.36 1.142 2.299 3.401 3.479 6 4.32.534-.037.543-2.374 1.681-1.681-.878 3.808.598 6.875 1.68 12h-53.04c1.454-1.506 3.35-2.57 4.561-4.319-.499-1.803-3.188-3.328-4.08-5.521-1.067-.106-1.271.65-1.92.96-1.006-.969-1.923-3.014-3.601-1.92.074.727.743.857.48 1.92-1.288 1.391-4.728.06-6 .96.721 3.839 4.175 4.945 5.76 7.92h-58.08c-3.252-5.868-6.848-11.392-9.6-17.76-2.118 7.002-5.822 12.418-9.6 17.76-23.44-.319-48.159.64-70.8-.479v-.48c14.905.391 24.163-6.79 37.44-8.399 5.653-.686 10.706-3.161 15.6-3.601 1.652-.147 2.416 1.045 4.32.96 11.399-.507 15.842-12.501 25.92-12.479 1.235.002 2.117.92 3.36.72 4.783-.769 4.803-10.995 7.44-15.12.211.669.299 1.461.72 1.92 3.168-11.04-5.646-20.081-3.6-28.08 6.546-.804 1.477-14.031 4.32-20.64-5.557-6.949 3.438-10.835 3.36-17.52-.015-1.32-.72-2.074-.48-3.36.438-2.354 3.95-2.694 3.84-5.04-.127-2.704-6.727-6.919-10.32-5.521-5.322 2.072-5.209 13.604-11.28 14.881-2.412-9.544-5.487-26.817-.72-35.28 5.56-9.871 14.373-21.094 23.76-26.64 4.434 4.15 3.664-5.673 8.4-5.52 7.981.257.785 12.377 8.4 12.24-.189-16.698 13.534-16.632 20.64-6.48 1.199 1.714 2.122 6.905 5.04 6 4.696-1.456-3.586-9.44-4.56-9.6.83.085 1.277.281 1.92-.24.357-2.997-3.379-10.546-3.84-14.64 9.424 3.891-1.35-4.333 0-8.4.489-1.474 2.258-.786 3.84-2.4 3.321-3.388 3.811-10.117 1.92-13.92 1.36-2.119 1.179-3.748 2.16-5.28 3.38-5.278 16.751-10.872 25.44-9.84 15.45 1.834 30.432 9.735 41.28 14.88 2.229-1.756.153-4.5-.96-6.24.535-1.145 1.445-1.914 1.92-3.12-11.144-10.119 10.723-10.015 15.12-14.88 3.87-4.282-2.153-12.079-4.08-15.36-2.077-3.536-7.208-6.684-12-10.08-4.4-3.119-6.957-8.6-11.761-10.56-3.149-1.285-8.075.921-12 .72-21.517-1.103-46.882-3.249-65.52-.72 5.286-10.014 12.826-17.919 23.04-21.84 10.511-4.035 26.282-6.82 39.6-5.52 10.229.998 15.356 4.691 23.04 8.4 12.957 6.253 30.759 10.062 39.601 19.44 5.175 5.488 8.519 15.703 14.399 21.36 2.079 2 7.314 2.544 9.36 4.32 11.483 9.963 12.205 34.88 12 54-.086 7.96-5.677 15.685-5.28 25.68.203 5.119-.52 9.433-.96 14.16-.543 5.827 1.893 11.545 1.68 16.8-.168 4.184-3.018 10.218-4.079 14.4-2.426 9.551-7.698 21.457-15.841 24.479-2.974 1.104-4.992-.023-8.399.721-6.898 1.506-10.619 11.647-12.48 18-2.788 9.518-1.69 18.514-2.64 30.239-.49 6.058-3.353 14.623-2.16 20.4 1.403 6.797 11.883 9.09 16.56 13.92 1.24 1.28 2.49 4.759 4.08 4.8 1.531.04 2.713-2.508 4.561-2.64 6.79-.483 15.184 5.721 21.359 6.481zM166.56 159.12c-2.612 3.134.657 4.809 1.681 6.72 2.402 4.489 4.694 9.592 8.16 15.36 6.217 10.347 10.311 24.131 1.92 33.359.42.22 1.197.083 1.439.48-.634.886-1.919 1.121-2.64 1.92 2.59 4.603-.291 13.267 6.72 14.16 1.682-2.14 4.184-.519 6.72-1.68 1.418-4.994 2.456-9.918 2.641-15.601 4.253-5.094 7.386-11.524 7.2-20.399.583-1.017 1.69-1.51 2.399-2.4 2.424-6.678-5.828-7.169-3.359-13.68h2.159c.677-1.968.857-3.61-.239-5.28.498-.462 1.162-.758 1.68-1.2-.655-.544-.45-1.949-.48-3.12 3.17-1.489 2.06-4.974 2.881-8.16 1.178-.218.914 1.006 1.92.96.437-1.002 1.957-.922 2.159-2.159-1.083-5.901-8.59-7.85-14.399-7.92-13.066-.16-28.574-1.105-36.72-8.88 1.108 6.82 6.046 11.442 8.158 17.52zm-36.72-13.68c-8.595-.635-5.778 9.813-.72 10.8-.698 1.955.794 5.628-1.68 7.68-4 1.396-15.618-1.439-16.32 3.6-1.09 7.823 10.666 3.634 14.4 3.841 4.356.24 5.867 3.55 8.88 4.8 1.542-1.507 1.683-3.644 2.88-5.04 1.33.431 2.291 1.229 4.32.96 2.396-5.765 11.845-4.476 12.72-11.76-2.742-.68-8.969 1.11-11.76-1.2-.11-7.324-5.803-13.17-12.72-13.681zm-17.52 7.92c4.335.178 3.314-8.217-.48-7.44-3.295.675-2.709 7.309.48 7.44zM81.6 186c2.132-6.508 8.78-8.5 10.32-15.6-6.232 1.015-12.068 8.197-10.32 15.6zm22.8-11.52c.132 1.423 5.823.74 4.56 0 .754-.121.98.565 1.2-.24-2.116-1.594-3.511-.018-5.76.24zM89.76 186c3.537-2.708 8.113-6.921 10.08-9.6-4.406-3.211-14.681 4.761-10.08 9.6zm84.48 5.52c2.182-.021.855 3.465 3.6 2.881-.04-6.263-4.142-10.862-8.16-11.521.715 3.685 3.647 5.153 4.56 8.64zm-58.08-7.68c-6.081.221-16.63.124-19.44 5.04 10.793 2.339 27.661 1.123 32.64 7.68-1.447 1.113-5.567-.446-6.24 1.44.191 2.448 6.643 2.398 7.44 1.2 13.582.688 23.872 10.87 36.959 7.439 2.728 2.914 5.993-.421 4.08-4.08-20.635-1.957-33.5-19.516-55.439-18.719zm50.88 2.4c.464.569 1.217.569 1.68 0-.074-1.386-1.429-.884-1.68 0zm-78.24 5.04c.35 3.88 8.092 2.632 7.68-1.92-2.194-2.143-7.959-1.175-7.68 1.92zm24 11.28c1.915.663 4.476.795 6.48.24-1.631-.4-5.276-2.426-6.48-.24zm21.12 9.36c1.565-.624 2.118-3.442 2.16-4.8-2.818-3.422-10.575-3.186-15.6-3.601 4.135 3.146 9.404 5.157 13.44 8.401zm-26.4 6c-3.101 7.159 7.136 3.326 11.52 3.36.528-.557-.332-1.078-.72-1.44.422-.138 1.41.29 1.44-.24-3-1.75-7.762-2.798-12.24-1.68zm93.12 4.32c.014-.787.683-.918.48-1.92-3.279-4.655-7.234 3.879-.48 1.92zm-4.8 2.16c.421.553.898.878 1.68.479-.142-.78-1.337-1.209-1.68-.479zm-11.52 36.48c.632-.807.003-1.957-.721-2.16-.048 1.009-.085 2.007.721 2.16zm-13.68 1.68c.636 1.596 3.854.865 3.84-.96-.654-1.375-3.726-.435-3.84.96zm5.28 17.52c-.17.89.41 1.03.24 1.92 1.121-.158 1.762-.799 1.92-1.92-.46-1.309-1.381-.306-2.16 0zm5.76 3.6c.763.361 1.953.361 1.92-.72-.616-.853-1.859-.318-1.92.72zm-44.88 10.08c.167 3.341 2.691 1.634 5.52 2.641 5.472 1.945 7.546 10.017 12.48 2.159-.053-1.696-.757-2.049-.72-3.359-4.035-3.169-12.29-5.125-17.28-1.441zm60.48 11.04c.598-.441 1.732-.348 1.92-1.2-.885.005-2.287.739-1.92 1.2zm2.4 1.92c1.34-.021 1.956-.764 2.16-1.92-.209-.352-.359-.761-.96-.72-.122 1.157-1.186 1.374-1.2 2.64z"/>
        <path fill="#6C6C6C" d="M199.2 303.6c-.188.853-1.322.759-1.92 1.2-.367-.461 1.035-1.195 1.92-1.2z"/>
    </g>
</svg>
