<?xml version="1.0" encoding="utf-8"?>
<!-- Generator: Adobe Illustrator 15.1.0, SVG Export Plug-In . SVG Version: 6.00 Build 0)  -->
<!DOCTYPE svg PUBLIC "-//W3C//DTD SVG 1.1//EN" "http://www.w3.org/Graphics/SVG/1.1/DTD/svg11.dtd">
<svg version="1.1" id="Untitled-1_xA0_Image_1_" xmlns="http://www.w3.org/2000/svg" xmlns:xlink="http://www.w3.org/1999/xlink"
	 x="0px" y="0px" width="296.4px" height="313.68px" viewBox="0 0 296.4 313.68" enable-background="new 0 0 296.4 313.68"
	 xml:space="preserve">
<g>
	<path fill-rule="evenodd" clip-rule="evenodd" fill="#8B8B8B" d="M95.28,134.64c1.397-1.165,5.543,0.178,6.72-2.16
		c-1.787-1.013-3.777-1.823-4.08-4.32c1.476-0.814,3.828-2.049,4.56-4.32c-2.941-2.994-4.466,2.589-5.76,4.32
		c-1.107-0.013-2.347,0.106-3.12-0.24c-1.428-6.665-0.853-10.523-1.92-15.84c-3.56-17.743,15.81-27.137,32.16-24.96
		c2.097,0.279,12.809,8.142,14.16,10.08c1.598,2.292,2.895,5.125,2.16,8.64c-5.377,2.798-7.854,10.123-12.96,14.4
		c-5.836,4.89-13.248,6.795-17.76,12.24C106.584,135.926,99.46,139.581,95.28,134.64z M123.12,90
		c-4.206-2.121-16.421,0.022-20.64,1.68c-5.748,2.258-10.34,11.855-8.64,18c6.307-9.771,27.228-7.827,36.72-1.44
		c3.587-0.585,6.827-4.819,3.84-8.4C127.352,100.22,127.936,92.428,123.12,90z M97.2,111.12c2.071-1.049,4.606-1.634,5.76-3.6
		C100.698,106.059,97.208,108.095,97.2,111.12z M93.84,119.52c-0.192,7.164,4.383,1.766,6.96,1.2
		c2.873-0.631,8.361,0.384,10.32,1.92c0.705,0.552,1.03,2.41,2.16,2.64c2.24,0.457,10.382-4.354,11.76-6
		c6.67-7.961-8.153-10.61-16.56-9.6C102.017,110.457,94.021,112.781,93.84,119.52z"/>
	<path fill-rule="evenodd" clip-rule="evenodd" fill="#6C6C6C" d="M134.4,99.84c2.987,3.582-0.253,7.815-3.84,8.4
		c-9.492-6.387-30.414-8.332-36.72,1.44c-1.7-6.145,2.892-15.742,8.64-18c4.219-1.658,16.435-3.801,20.64-1.68
		C127.936,92.428,127.352,100.22,134.4,99.84z M97.68,102c6.791-2.578,19.057-0.603,25.2-2.4
		C121.647,88.483,98.379,93.117,97.68,102z"/>
	<path fill-rule="evenodd" clip-rule="evenodd" fill="#8B8B8B" d="M200.4,94.08c-0.694-0.106-1.095-0.506-1.2-1.2
		C199.891,92.17,200.899,93.599,200.4,94.08z"/>
	<path fill-rule="evenodd" clip-rule="evenodd" fill="#393939" d="M122.88,99.6c-6.143,1.797-18.409-0.178-25.2,2.4
		C98.379,93.117,121.647,88.483,122.88,99.6z"/>
	<path fill-rule="evenodd" clip-rule="evenodd" fill="#393939" d="M212.64,127.44c-13.324-8.916-24.991-19.488-44.88-21.84
		c2.362-10.958,15.423-5.867,23.521-0.96c4.072,2.468,3.312,3.29,8.64,3.84C208.883,109.405,210.611,120.267,212.64,127.44z"/>
	<path fill-rule="evenodd" clip-rule="evenodd" fill="#A6A6A6" d="M102.96,107.52c-1.153,1.966-3.688,2.551-5.76,3.6
		C97.208,108.095,100.698,106.059,102.96,107.52z"/>
	<path fill-rule="evenodd" clip-rule="evenodd" fill="#6C6C6C" d="M108.48,109.68c8.407-1.01,23.23,1.638,16.56,9.6
		c-1.378,1.646-9.521,6.457-11.76,6c-1.129-0.23-1.455-2.087-2.16-2.64c-1.959-1.536-7.448-2.551-10.32-1.92
		c-2.577,0.566-7.152,5.963-6.96-1.2C94.021,112.781,102.017,110.457,108.48,109.68z M96.48,120.24
		c5.483-2.981,16.607,0.473,19.44-6C110.829,108.749,94.639,112.214,96.48,120.24z"/>
	<path fill-rule="evenodd" clip-rule="evenodd" fill="#393939" d="M115.92,114.24c-2.833,6.473-13.957,3.019-19.44,6
		C94.639,112.214,110.829,108.749,115.92,114.24z"/>
	<path fill-rule="evenodd" clip-rule="evenodd" fill="#393939" d="M206.16,136.08c-9.406-5.998-21.261-10-35.76-9.6
		c-0.408-3.577,2.206-6.09,5.76-6.48C187.908,118.711,201.07,129.989,206.16,136.08z"/>
	<path fill-rule="evenodd" clip-rule="evenodd" fill="#8B8B8B" d="M240.479,136.56c-1.003-0.277-2.322-0.237-2.88-0.96
		C238.186,133.84,242.139,134.852,240.479,136.56z"/>
	<path fill-rule="evenodd" clip-rule="evenodd" fill="#8B8B8B" d="M137.28,142.32c-3.065,1.206-5.376-1.639-5.76-3.12
		C134.381,138.364,135.743,141.038,137.28,142.32z"/>
	<path fill-rule="evenodd" clip-rule="evenodd" fill="#A6A6A6" d="M158.4,141.6c8.146,7.774,23.653,8.72,36.72,8.88
		c5.81,0.071,13.316,2.019,14.399,7.92c-0.202,1.237-1.723,1.157-2.159,2.159c-1.006,0.046-0.742-1.178-1.92-0.96
		c-0.821,3.187,0.289,6.671-2.881,8.16c0.03,1.171-0.175,2.576,0.48,3.12c-0.518,0.442-1.182,0.738-1.68,1.2
		c1.097,1.67,0.916,3.312,0.239,5.28c-0.72,0-1.439,0-2.159,0c-2.469,6.511,5.783,7.002,3.359,13.68
		c-0.709,0.891-1.816,1.384-2.399,2.4c0.186,8.875-2.947,15.306-7.2,20.399c-0.185,5.683-1.223,10.606-2.641,15.601
		c-2.536,1.161-5.038-0.46-6.72,1.68c-7.011-0.894-4.13-9.558-6.72-14.16c0.721-0.799,2.006-1.034,2.64-1.92
		c-0.242-0.397-1.02-0.261-1.439-0.48c8.391-9.229,4.297-23.013-1.92-33.359c-3.466-5.769-5.758-10.871-8.16-15.36
		c-1.023-1.911-4.293-3.586-1.681-6.72C164.448,153.042,159.51,148.42,158.4,141.6z M189.6,207.12
		c0.516,0.655,2.227,1.114,2.88,0.24C193.261,204.511,188.969,204.105,189.6,207.12z M180.479,217.2
		c1.218,1.503,3.061,2.38,5.28,2.88C186.929,217.44,180.79,211.596,180.479,217.2z"/>
	<path fill-rule="evenodd" clip-rule="evenodd" fill="#6C6C6C" d="M142.56,159.12c2.791,2.311,9.018,0.521,11.76,1.2
		c-0.875,7.284-10.324,5.995-12.72,11.76c-2.029,0.269-2.991-0.529-4.32-0.96c-1.197,1.396-1.338,3.533-2.88,5.04
		c-3.013-1.25-4.524-4.56-8.88-4.8c-3.734-0.207-15.49,3.982-14.4-3.841c0.702-5.039,12.32-2.203,16.32-3.6
		c2.474-2.052,0.982-5.725,1.68-7.68c-5.059-0.987-7.875-11.435,0.72-10.8C136.757,145.951,142.45,151.797,142.56,159.12z
		 M126.48,149.04c-0.297,2.777,10.949,6.918,13.44,6.72C143.337,150.681,127.017,144.024,126.48,149.04z"/>
	<path fill-rule="evenodd" clip-rule="evenodd" fill="#6C6C6C" d="M111.84,145.92c3.794-0.777,4.815,7.618,0.48,7.44
		C109.131,153.229,108.545,146.595,111.84,145.92z"/>
	<path fill-rule="evenodd" clip-rule="evenodd" fill="#393939" d="M139.92,155.76c-2.491,0.198-13.737-3.943-13.44-6.72
		C127.017,144.024,143.337,150.681,139.92,155.76z"/>
	<path fill-rule="evenodd" clip-rule="evenodd" fill="#6C6C6C" d="M91.92,170.4c-1.54,7.1-8.188,9.092-10.32,15.6
		C79.852,178.597,85.688,171.415,91.92,170.4z"/>
	<path fill-rule="evenodd" clip-rule="evenodd" fill="#A6A6A6" d="M110.16,174.24c-0.22,0.806-0.446,0.119-1.2,0.24
		c1.263,0.74-4.428,1.423-4.56,0C106.649,174.222,108.044,172.646,110.16,174.24z"/>
	<path fill-rule="evenodd" clip-rule="evenodd" fill="#A6A6A6" d="M99.84,176.4c-1.967,2.679-6.543,6.892-10.08,9.6
		C85.159,181.161,95.434,173.189,99.84,176.4z"/>
	<path fill-rule="evenodd" clip-rule="evenodd" fill="#393939" d="M273.6,193.2c-2.675-1.996-1.374-8.223-5.04-9.84
		c-2.42-1.068-6.518-0.046-7.199-2.4c-1.507-5.199,10.23-6.7,13.68-3.84C276.698,181.807,276.575,189.877,273.6,193.2z"/>
	<path fill-rule="evenodd" clip-rule="evenodd" fill="#6C6C6C" d="M169.68,182.88c4.019,0.658,8.12,5.258,8.16,11.521
		c-2.744,0.584-1.418-2.902-3.6-2.881C173.327,188.033,170.395,186.565,169.68,182.88z"/>
	<path fill-rule="evenodd" clip-rule="evenodd" fill="#6C6C6C" d="M171.6,202.56c1.913,3.659-1.353,6.994-4.08,4.08
		c-13.088,3.431-23.377-6.751-36.959-7.439c-0.797,1.198-7.249,1.248-7.44-1.2c0.673-1.887,4.792-0.327,6.24-1.44
		c-4.979-6.557-21.846-5.341-32.64-7.68c2.81-4.916,13.359-4.819,19.44-5.04C138.099,183.043,150.964,200.602,171.6,202.56z
		 M151.92,201.36c1.709,2.082,6.029,2.729,9.6,2.159C159.9,201.511,155.056,200.265,151.92,201.36z"/>
	<path fill-rule="evenodd" clip-rule="evenodd" fill="#6C6C6C" d="M168.72,186.24c-0.463,0.569-1.216,0.569-1.68,0
		C167.291,185.356,168.646,184.854,168.72,186.24z"/>
	<path fill-rule="evenodd" clip-rule="evenodd" fill="#6C6C6C" d="M96.48,189.36c0.412,4.552-7.33,5.8-7.68,1.92
		C88.521,188.185,94.286,187.217,96.48,189.36z"/>
	<path fill-rule="evenodd" clip-rule="evenodd" fill="#393939" d="M161.52,203.52c-3.57,0.569-7.891-0.077-9.6-2.159
		C155.056,200.265,159.9,201.511,161.52,203.52z"/>
	<path fill-rule="evenodd" clip-rule="evenodd" fill="#A6A6A6" d="M119.28,202.8c-2.004,0.555-4.565,0.423-6.48-0.24
		C114.004,200.374,117.649,202.4,119.28,202.8z"/>
	<path fill-rule="evenodd" clip-rule="evenodd" fill="#A6A6A6" d="M120.48,203.52c5.025,0.415,12.782,0.179,15.6,3.601
		c-0.042,1.357-0.595,4.176-2.16,4.8C129.884,208.676,124.615,206.665,120.48,203.52z"/>
	<path fill-rule="evenodd" clip-rule="evenodd" fill="#8B8B8B" d="M192.479,207.36c-0.653,0.874-2.364,0.415-2.88-0.24
		C188.969,204.105,193.261,204.511,192.479,207.36z"/>
	<path fill-rule="evenodd" clip-rule="evenodd" fill="#393939" d="M268.32,206.4C266.47,219.577,254.084,203.256,268.32,206.4
		L268.32,206.4z"/>
	<path fill-rule="evenodd" clip-rule="evenodd" fill="#8B8B8B" d="M185.76,220.08c-2.22-0.5-4.062-1.377-5.28-2.88
		C180.79,211.596,186.929,217.44,185.76,220.08z"/>
	<path fill-rule="evenodd" clip-rule="evenodd" fill="#6C6C6C" d="M119.76,219.6c-0.03,0.53-1.018,0.103-1.44,0.24
		c0.388,0.362,1.249,0.884,0.72,1.44c-4.384-0.034-14.621,3.799-11.52-3.36C111.998,216.802,116.76,217.85,119.76,219.6z"/>
	<path fill-rule="evenodd" clip-rule="evenodd" fill="#A6A6A6" d="M201.12,220.32c0.202,1.002-0.467,1.133-0.48,1.92
		C193.886,224.199,197.841,215.665,201.12,220.32z"/>
	<path fill-rule="evenodd" clip-rule="evenodd" fill="#A6A6A6" d="M197.52,224.88c-0.781,0.398-1.259,0.073-1.68-0.479
		C196.183,223.67,197.378,224.099,197.52,224.88z"/>
	<path fill-rule="evenodd" clip-rule="evenodd" fill="#6C6C6C" d="M183.6,258.72c0.724,0.203,1.353,1.354,0.721,2.16
		C183.514,260.727,183.551,259.729,183.6,258.72z"/>
	<path fill-rule="evenodd" clip-rule="evenodd" fill="#6C6C6C" d="M174.479,261.6c0.015,1.825-3.204,2.556-3.84,0.96
		C170.754,261.165,173.826,260.225,174.479,261.6z"/>
	<path fill-rule="evenodd" clip-rule="evenodd" fill="#6C6C6C" d="M178.08,280.08c-0.158,1.121-0.799,1.762-1.92,1.92
		c0.17-0.89-0.41-1.03-0.24-1.92C176.699,279.774,177.62,278.771,178.08,280.08z"/>
	<path fill-rule="evenodd" clip-rule="evenodd" fill="#6C6C6C" d="M183.6,282.96c0.033,1.081-1.157,1.081-1.92,0.72
		C181.741,282.642,182.984,282.107,183.6,282.96z"/>
	<path fill-rule="evenodd" clip-rule="evenodd" fill="#A6A6A6" d="M154.08,295.2c-0.037,1.311,0.667,1.663,0.72,3.359
		c-4.934,7.857-7.008-0.214-12.48-2.159c-2.829-1.007-5.353,0.7-5.52-2.641C141.79,290.076,150.045,292.032,154.08,295.2z"/>
	<path fill-rule="evenodd" clip-rule="evenodd" fill="#6C6C6C" d="M90,313.68c-6.4,0-12.8,0-19.2,0
		c3.778-5.342,7.482-10.758,9.6-17.76C83.152,302.288,86.748,307.812,90,313.68z"/>
	<path fill-rule="evenodd" clip-rule="evenodd" fill="#393939" d="M236.64,301.68c3.313-0.111,4.685,8.779,1.681,8.641
		C235.958,310.211,236.321,304.294,236.64,301.68z"/>
	<path fill-rule="evenodd" clip-rule="evenodd" fill="#A6A6A6" d="M152.88,313.68c-1.6,0-3.2,0-4.8,0
		c-1.585-2.975-5.039-4.081-5.76-7.92c1.273-0.9,4.713,0.431,6-0.96c0.263-1.062-0.407-1.193-0.48-1.92
		c1.678-1.094,2.595,0.951,3.601,1.92c0.649-0.31,0.853-1.066,1.92-0.96c0.892,2.192,3.581,3.718,4.08,5.521
		C156.229,311.109,154.334,312.174,152.88,313.68z"/>
	<path fill-rule="evenodd" clip-rule="evenodd" fill="#6C6C6C" d="M200.88,304.08c0.601-0.041,0.751,0.368,0.96,0.72
		c-0.204,1.156-0.82,1.899-2.16,1.92C199.694,305.454,200.758,305.237,200.88,304.08z"/>
	<path fill-rule="evenodd" clip-rule="evenodd" fill="#6C6C6C" d="M279.36,313.68c-2.721,0-5.44,0-8.16,0
		c-0.196-1.004-1.466-0.934-1.44-2.16c2.53-0.411,6.628,1.229,9.601,1.921C279.36,313.52,279.36,313.6,279.36,313.68z"/>
	<path fill-rule="evenodd" clip-rule="evenodd" fill="#D2D2D2" d="M287.52,313.68c-0.64,0-1.279,0-1.92,0
		c-4.916-2.62-12.086-3.52-18.479-5.52c-9.57-2.994-27.508-8.266-29.76-17.28c-1.317-5.271,1.633-14.118,2.159-20.16
		c0.998-11.441,0.089-20.851,2.4-29.279c1.183-4.312,4.45-14.114,7.92-15.841c6.144-3.056,13.135-0.957,17.521-5.76
		c6.491-7.11,8.647-17.25,12-28.56c0.949-3.206,3.614-5.804,3.84-8.88c0.334-4.565-2.097-9.744-1.92-15.12
		c0.187-5.693,1.406-10.187,0.96-16.56c-0.66-9.421,4.79-16.52,4.8-24.48c0.023-20.147,0.395-46.262-12.48-55.2
		c-1.794-1.246-6.334-2.099-8.399-3.6c-7.218-5.246-9.475-16.899-15.601-22.32c-7.879-6.973-22.494-13.124-35.52-17.52
		c-6.257-2.112-11.97-7.166-17.521-8.64c-15.069-4.003-38.672-0.496-50.399,4.32c-13.51,5.548-21.508,15.944-28.08,29.04
		c0.252,1.463,2.871,0.797,1.92,1.2c-6.558,10.077-10.084,20.458-16.08,30.48c-1.747,2.921-5.039,4.274-7.2,6.96
		c-7.088,8.81-7.44,19.703-7.44,33.36c0,0.898-0.026,1.994-0.24,2.88c-3.585,14.805-13.237,25.836-15.12,40.319
		c-1.215,9.347-3.478,17.734-3.12,29.28c0.593,19.117,5.045,32.066,10.08,45.84c1.251,3.422,1.823,7.118,3.6,10.561
		c1.574,3.047,3.936,5.722,4.56,9.359c0.863,5.029-1.443,15.882-4.32,20.16c-4.134,6.147-21.404,10.943-29.52,13.44
		c-12.777,3.932-29.602,3.765-40.08,8.64c-4.43,2.062-8.903,6.405-16.08,2.88c0-0.479,0-0.96,0-1.439
		c18.116-7.201,45.429-10.148,65.76-17.28c5.238-1.837,14.299-4.204,16.56-7.2c2.718-3.601,4.932-15.488,4.08-20.16
		c-0.615-3.371-4.738-7.666-6.72-11.76c-8.284-17.111-14.125-38.354-12.72-63.6c0.747-13.416,2.012-30.662,10.08-39.12
		c-2.188-6.36,3.006-9.456,5.04-13.44c2.35-4.604,4.466-10.894,5.28-16.8c0.507-3.681-0.007-9.156,1.2-12.96
		c7.69-24.223,20.674-46.857,35.76-65.76c6.786-8.503,17.643-17.545,31.2-19.44c12.116-1.694,33.006-5.871,45.841-0.48
		c3.826,1.607,7.553,3.836,11.52,5.76c13.276,6.437,32.364,10.19,41.521,21.6c5.036,6.276,6.578,15.608,13.92,20.16
		c2.408,1.493,5.628,1.533,8.159,3.36c12.943,9.338,10.818,31.027,11.28,52.08c0.246,11.197-3.085,17.916-2.88,29.52
		c0.097,5.467-0.682,11.018-0.96,16.799c-0.262,5.429,2.064,10.896,1.2,15.36c-0.517,2.663-3.216,5.027-4.32,8.4
		c-3.857,11.783-5.913,23.34-12.96,31.439c-3.943,4.533-10.061,2.651-16.8,5.04c-5.148,1.825-8.82,21.717-9.36,28.32
		c-0.513,6.274,0.371,11.776-0.479,18c-0.717,5.238-3.487,12.44-1.92,16.32C245.666,306.21,274.9,303.974,287.52,313.68z"/>
	<path fill-rule="evenodd" clip-rule="evenodd" fill="#A6A6A6" d="M0,307.68c7.177,3.525,11.65-0.818,16.08-2.88
		c10.478-4.875,27.303-4.708,40.08-8.64c8.116-2.497,25.386-7.293,29.52-13.44c2.877-4.278,5.183-15.131,4.32-20.16
		c-0.624-3.638-2.986-6.312-4.56-9.359c-1.777-3.442-2.349-7.139-3.6-10.561c-5.035-13.773-9.487-26.723-10.08-45.84
		c-0.358-11.546,1.905-19.934,3.12-29.28C76.763,153.037,86.415,142.005,90,127.2c0.214-0.886,0.24-1.982,0.24-2.88
		c0-13.657,0.352-24.55,7.44-33.36c2.161-2.686,5.453-4.039,7.2-6.96c5.996-10.022,9.522-20.403,16.08-30.48
		c0.951-0.403-1.668,0.263-1.92-1.2c6.572-13.096,14.57-23.492,28.08-29.04c11.728-4.816,35.33-8.323,50.399-4.32
		c5.551,1.475,11.264,6.528,17.521,8.64c13.025,4.396,27.641,10.547,35.52,17.52c6.126,5.421,8.383,17.074,15.601,22.32
		c2.065,1.501,6.605,2.354,8.399,3.6c12.875,8.938,12.504,35.053,12.48,55.2c-0.01,7.96-5.46,15.059-4.8,24.48
		c0.446,6.374-0.773,10.867-0.96,16.56c-0.177,5.376,2.254,10.555,1.92,15.12c-0.226,3.076-2.891,5.674-3.84,8.88
		c-3.353,11.31-5.509,21.449-12,28.56c-4.386,4.803-11.377,2.704-17.521,5.76c-3.47,1.727-6.737,11.529-7.92,15.841
		c-2.312,8.429-1.402,17.838-2.4,29.279c-0.526,6.042-3.477,14.889-2.159,20.16c2.252,9.015,20.189,14.286,29.76,17.28
		c6.394,2,13.563,2.899,18.479,5.52c-1.04,0-2.079,0-3.12,0c-6.176-0.76-14.569-6.964-21.359-6.479
		c-1.848,0.132-3.029,2.68-4.561,2.64c-1.59-0.041-2.84-3.52-4.08-4.8c-4.677-4.83-15.156-7.123-16.56-13.92
		c-1.192-5.777,1.67-14.343,2.16-20.4c0.949-11.726-0.148-20.722,2.64-30.239c1.861-6.353,5.582-16.494,12.48-18
		c3.407-0.744,5.426,0.384,8.399-0.721c8.143-3.022,13.415-14.929,15.841-24.479c1.062-4.183,3.911-10.217,4.079-14.4
		c0.213-5.255-2.223-10.973-1.68-16.8c0.44-4.728,1.163-9.041,0.96-14.16c-0.396-9.995,5.194-17.72,5.28-25.68
		c0.205-19.12-0.517-44.037-12-54c-2.046-1.776-7.281-2.32-9.36-4.32c-5.881-5.657-9.225-15.872-14.399-21.36
		c-8.842-9.378-26.644-13.187-39.601-19.44c-7.684-3.708-12.811-7.402-23.04-8.4c-13.317-1.3-29.089,1.485-39.6,5.52
		c-10.214,3.921-17.754,11.826-23.04,21.84c18.637-2.529,44.003-0.383,65.52,0.72c3.925,0.201,8.851-2.005,12-0.72
		c4.804,1.96,7.36,7.441,11.761,10.56c4.792,3.396,9.923,6.544,12,10.08c1.927,3.281,7.95,11.078,4.08,15.36
		c-4.397,4.865-26.264,4.761-15.12,14.88c-0.475,1.206-1.385,1.975-1.92,3.12c1.113,1.74,3.188,4.484,0.96,6.24
		c-10.849-5.145-25.83-13.045-41.28-14.88c-8.688-1.032-22.06,4.562-25.44,9.84c-0.981,1.532-0.8,3.161-2.16,5.28
		c1.891,3.803,1.401,10.532-1.92,13.92c-1.582,1.614-3.351,0.926-3.84,2.4c-1.35,4.067,9.424,12.291,0,8.4
		c0.461,4.094,4.197,11.644,3.84,14.64c-0.643,0.521-1.09,0.325-1.92,0.24c0.974,0.159,9.256,8.144,4.56,9.6
		c-2.918,0.905-3.841-4.286-5.04-6c-7.106-10.152-20.83-10.218-20.64,6.48c-7.615,0.137-0.419-11.983-8.4-12.24
		c-4.736-0.153-3.966,9.67-8.4,5.52c-9.387,5.546-18.201,16.769-23.76,26.64c-4.767,8.463-1.692,25.736,0.72,35.28
		c6.071-1.277,5.958-12.809,11.28-14.881c3.593-1.398,10.193,2.816,10.32,5.521c0.109,2.346-3.402,2.687-3.84,5.04
		c-0.24,1.286,0.465,2.04,0.48,3.36c0.078,6.685-8.917,10.57-3.36,17.52c-2.843,6.608,2.226,19.836-4.32,20.64
		c-2.047,7.999,6.768,17.04,3.6,28.08c-0.42-0.459-0.509-1.251-0.72-1.92c-2.637,4.125-2.657,14.352-7.44,15.12
		c-1.243,0.2-2.125-0.718-3.36-0.72c-10.078-0.021-14.521,11.973-25.92,12.479c-1.904,0.085-2.668-1.107-4.32-0.96
		c-4.895,0.439-9.947,2.915-15.6,3.601C24.163,305.93,14.905,313.11,0,312.72C0,311.04,0,309.36,0,307.68z M109.44,132.48
		c4.513-5.444,11.924-7.35,17.76-12.24c5.105-4.278,7.583-11.602,12.96-14.4c0.734-3.515-0.562-6.348-2.16-8.64
		c-1.351-1.938-12.063-9.801-14.16-10.08c-16.35-2.177-35.72,7.217-32.16,24.96c1.067,5.317,0.492,9.175,1.92,15.84
		c0.773,0.347,2.013,0.227,3.12,0.24c1.294-1.731,2.819-7.314,5.76-4.32c-0.732,2.271-3.084,3.506-4.56,4.32
		c0.303,2.497,2.293,3.307,4.08,4.32c-1.177,2.338-5.323,0.995-6.72,2.16C99.46,139.581,106.584,135.926,109.44,132.48z
		 M199.2,92.88c0.105,0.694,0.506,1.094,1.2,1.2C200.899,93.599,199.891,92.17,199.2,92.88z M131.52,139.2
		c0.383,1.481,2.695,4.326,5.76,3.12C135.743,141.038,134.381,138.364,131.52,139.2z"/>
	<path fill-rule="evenodd" clip-rule="evenodd" fill="#6C6C6C" d="M248.4,313.68c-14.16,0-28.32,0-42.48,0
		c-1.082-5.125-2.558-8.192-1.68-12c-1.138-0.693-1.146,1.644-1.681,1.681c-2.599-0.842-4.858-2.021-6-4.32
		c-1.701,0.379-1.759,2.401-2.88,3.36c-3.278-1.162-5.354,3.15-9.359,0.72c2.654-5.215,7.521-14.41,14.159-7.44
		c0.822,0.698,0.114,2.927,1.44,3.12c6.195-1.214,0.647-6.504-0.479-9.359c-1.696,0.304-0.924,3.076-2.641,3.359
		c-1.563,0.203-0.552-2.168-1.92-2.16c-2.992,0.429-6.907,5.209-9.12,0.721c0.882-2.087,4.811-1.126,6.48-1.2
		c-2.841-3.208-0.335-8.403-1.92-11.76c-1.41-2.985-5.864-1.473-6.721-5.28c-3.956,0.398-10.409,4.87-11.279-0.72
		c-1.087-6.975,8.528-7.184,12.72-8.4c-0.085-5.031,3.417-7.729,5.76-11.04c14.426-4.753,29.195-24.934,28.8-44.4
		c-0.032-1.612-1.059-3.186-0.72-4.8c0.222-1.055,2.454-1.957,2.88-3.6c0.968-3.733-2.148-9.372,2.641-10.08
		c0.81-3.571-1.107-7.305,0.239-10.32c0.783-0.577,2.25-0.47,3.12-0.96c1.704-6.259,0.642-12.519,4.32-18.72
		c1.074-1.812,2.771-2.832,2.88-4.08c0.669-7.703-7.867-10.553-12.72-14.16c-1.321,2.874-1.776,6.296-4.32,8.4
		c-6.37-5.281-16.063-5.068-21.36-11.28c-0.906-1.063-0.88-2.758-1.68-3.84c-2.604-3.522-11.66-6.213-16.08-3.6
		c0.611,2.91,3.818,4.5,5.04,6c-2.846,0.18-10.198,2.88-14.399,2.88c-6.525,0-17.271-10.208-17.28-15.84
		c-0.009-4.481,8.537-8.15,12.24-8.64c16.202-2.142,27.173,8.317,38.399,11.52c-7.187-8.532-15.35-16.498-30-17.28
		c-7.492-0.4-14.674,5.6-21.12,1.44c-3.628-4.256-0.306-10.614,3.601-12.24c6.358,3.412,10.185-4.926,16.8-5.04
		c7.287-0.125,17.585,5.98,24.479,8.64c3.22,1.242,7.519,1.347,10.32,3.36c3.876,2.785,4.88,6.654,10.08,9.36
		c2.471,1.285,3.992,3.584,6.48,5.28c5.913-8.287,15.374,2.662,17.279,8.88c2.075-3.226-0.03-10.179-0.24-15.12
		c-0.356-8.424,4.386-15.397,3.601-22.56c-0.229-2.098-2.204-4.858-2.88-6.96c-2.878-8.95-2.076-18.832-6.48-25.68
		c-3.418-5.315-10.882-7.465-16.319-10.32c-13.429-10.577-39.03-4.457-60.48-5.76c-9.371-0.569-20.914-4.09-29.04,0
		c6.269-15.752,26.562-22.27,47.04-23.76c15.476-1.126,23.642,2.996,33.6,7.92c12.986,6.421,30.091,9.854,39.601,19.2
		c6.227,6.12,8.427,16.949,15.84,22.56c5.186,3.925,10.173,4.037,13.44,10.08c6.066,11.221,8.001,30.817,6.72,47.76
		c-0.62,8.197-5.354,15.993-5.521,25.44c-0.126,7.22-1.372,13.327-1.439,19.68c-0.04,3.732,1.73,7.257,1.439,11.279
		c-0.622,8.6-4.526,21.792-8.159,27.12c-3.847,5.642-10.865,12.941-19.681,7.681c-0.317,4.024-4.081,5.244-6.24,8.159
		c-7.33,9.899-8.667,25.414-8.64,40.561c0.014,7.453-4.748,19.504-1.68,25.92C238.588,300.124,251.524,302.163,248.4,313.68z
		 M234.24,247.92c5.173-9.551,3.44-24.646,12.96-26.16c-2.914-4.824-1.153-13.806,3.6-17.279c-1.71-5.651-1.2-19.345,3.84-22.801
		c4.704,7.811-2.009,14.984-3.359,20.4c3.973,0.36,5.483-4.521,9.12-4.561c1.04-6.601,3.717-13.755-0.48-19.199
		c-0.592-0.769-1.932-0.193-2.4-1.2c-1.099-2.364,1.88-7.047,4.801-6.72c1.667,0.186,2.325,2.604,4.56,2.64
		c2.031,0.032,8.495-3.132,9.6-4.56c2.001-2.587,1.406-11.75,1.681-15.84c0.689-10.292,5.682-18.608,5.76-27.36
		c0.137-15.39-0.407-34.835-7.2-44.88c-3.259-4.819-10.303-7.027-14.16-11.28c-5.718-6.305-8.747-15.958-15.119-21.6
		c-5.989-5.302-17.688-11.305-24.721-13.92c-4.566-1.698-9.421-2.311-13.68-4.56c-4.152-2.193-8.327-4.884-12.24-6.24
		c-18.754-6.499-51.977,2.013-59.76,14.4c15.696,2.211,34.426,3.271,51.12,2.88c15.812-0.371,29.865,0.183,40.08,8.16
		c4.759,3.717,10.562,9.905,12.239,15.36c1.449,4.708,1.715,9.896,4.08,15.6c1.549,3.734,4.472,6.521,4.08,12
		c-0.566,7.934-4.269,14.773-3.6,23.04c1,12.359,7.386,18.98,6,32.4c-1.142,11.054-7.84,22.861-8.88,35.52
		c7.724,2.336,2.493,16.646,1.439,21.12c-3.876,16.47-9.992,31.538-12.72,44.16C232.266,249.289,233.834,248.67,234.24,247.92z
		 M199.92,108.48c-5.328-0.55-4.567-1.372-8.64-3.84c-8.098-4.907-21.158-9.998-23.521,0.96c19.889,2.352,31.556,12.924,44.88,21.84
		C210.611,120.267,208.883,109.405,199.92,108.48z M176.16,120c-3.554,0.39-6.168,2.903-5.76,6.48
		c14.499-0.4,26.354,3.602,35.76,9.6C201.07,129.989,187.908,118.711,176.16,120z M237.6,135.6c0.558,0.723,1.877,0.683,2.88,0.96
		C242.139,134.852,238.186,133.84,237.6,135.6z M275.04,177.12c-3.449-2.86-15.187-1.359-13.68,3.84
		c0.682,2.354,4.779,1.332,7.199,2.4c3.666,1.617,2.365,7.844,5.04,9.84C276.575,189.877,276.698,181.807,275.04,177.12z
		 M268.32,206.4C254.084,203.256,266.47,219.577,268.32,206.4L268.32,206.4z M238.32,310.32c3.004,0.139,1.633-8.752-1.681-8.641
		C236.321,304.294,235.958,310.211,238.32,310.32z"/>
	<path fill-rule="evenodd" clip-rule="evenodd" fill="#393939" d="M230.88,247.44c2.728-12.622,8.844-27.69,12.72-44.16
		c1.054-4.475,6.284-18.784-1.439-21.12c1.04-12.659,7.738-24.466,8.88-35.52c1.386-13.42-5-20.041-6-32.4
		c-0.669-8.267,3.033-15.106,3.6-23.04c0.392-5.479-2.531-8.266-4.08-12c-2.365-5.704-2.631-10.892-4.08-15.6
		c-1.678-5.455-7.48-11.643-12.239-15.36c-10.215-7.978-24.269-8.531-40.08-8.16c-16.694,0.392-35.424-0.669-51.12-2.88
		c7.783-12.388,41.006-20.899,59.76-14.4c3.913,1.356,8.088,4.047,12.24,6.24c4.259,2.249,9.113,2.862,13.68,4.56
		c7.033,2.615,18.731,8.618,24.721,13.92c6.372,5.642,9.401,15.295,15.119,21.6c3.857,4.253,10.901,6.46,14.16,11.28
		c6.793,10.045,7.337,29.49,7.2,44.88c-0.078,8.752-5.07,17.068-5.76,27.36c-0.274,4.09,0.32,13.253-1.681,15.84
		c-1.104,1.428-7.568,4.592-9.6,4.56c-2.234-0.036-2.893-2.454-4.56-2.64c-2.921-0.327-5.899,4.355-4.801,6.72
		c0.469,1.007,1.809,0.432,2.4,1.2c4.197,5.444,1.521,12.599,0.48,19.199c-3.637,0.04-5.147,4.921-9.12,4.561
		c1.351-5.416,8.063-12.59,3.359-20.4c-5.04,3.456-5.55,17.149-3.84,22.801c-4.753,3.474-6.514,12.455-3.6,17.279
		c-9.52,1.515-7.787,16.609-12.96,26.16C233.834,248.67,232.266,249.289,230.88,247.44z"/>
	<path fill-rule="evenodd" clip-rule="evenodd" fill="#8B8B8B" d="M282.479,313.68c-1.039,0-2.079,0-3.119,0c0-0.08,0-0.16,0-0.239
		c-2.973-0.691-7.07-2.332-9.601-1.921c-0.025,1.227,1.244,1.156,1.44,2.16c-7.601,0-15.2,0-22.8,0
		c3.124-11.517-9.812-13.556-13.2-20.64c-3.068-6.416,1.693-18.467,1.68-25.92c-0.027-15.146,1.31-30.661,8.64-40.561
		c2.159-2.915,5.923-4.135,6.24-8.159c8.815,5.261,15.834-2.039,19.681-7.681c3.633-5.328,7.537-18.521,8.159-27.12
		c0.291-4.022-1.479-7.547-1.439-11.279c0.067-6.354,1.313-12.46,1.439-19.68c0.166-9.447,4.9-17.243,5.521-25.44
		c1.281-16.943-0.653-36.54-6.72-47.76c-3.268-6.043-8.255-6.155-13.44-10.08c-7.413-5.611-9.613-16.44-15.84-22.56
		c-9.51-9.346-26.614-12.778-39.601-19.2c-9.958-4.924-18.124-9.046-33.6-7.92c-20.479,1.49-40.771,8.008-47.04,23.76
		c8.126-4.09,19.669-0.569,29.04,0c21.45,1.304,47.052-4.816,60.48,5.76c5.438,2.855,12.901,5.004,16.319,10.32
		c4.404,6.849,3.603,16.73,6.48,25.68c0.676,2.102,2.65,4.862,2.88,6.96c0.785,7.163-3.957,14.136-3.601,22.56
		c0.21,4.941,2.315,11.894,0.24,15.12c-1.905-6.218-11.366-17.167-17.279-8.88c-2.488-1.696-4.01-3.995-6.48-5.28
		c-5.2-2.706-6.204-6.575-10.08-9.36c-2.802-2.013-7.101-2.118-10.32-3.36c-6.895-2.66-17.192-8.765-24.479-8.64
		c-6.615,0.114-10.441,8.452-16.8,5.04c-3.906,1.626-7.229,7.984-3.601,12.24c6.446,4.16,13.628-1.84,21.12-1.44
		c14.65,0.782,22.813,8.748,30,17.28c-11.227-3.203-22.197-13.662-38.399-11.52c-3.703,0.49-12.249,4.159-12.24,8.64
		c0.01,5.632,10.755,15.84,17.28,15.84c4.201,0,11.554-2.7,14.399-2.88c-1.222-1.5-4.429-3.09-5.04-6
		c4.42-2.613,13.476,0.078,16.08,3.6c0.8,1.082,0.773,2.776,1.68,3.84c5.297,6.212,14.99,5.999,21.36,11.28
		c2.544-2.104,2.999-5.527,4.32-8.4c4.853,3.607,13.389,6.457,12.72,14.16c-0.108,1.248-1.806,2.269-2.88,4.08
		c-3.679,6.201-2.616,12.461-4.32,18.72c-0.87,0.49-2.337,0.383-3.12,0.96c-1.347,3.016,0.57,6.749-0.239,10.32
		c-4.789,0.708-1.673,6.347-2.641,10.08c-0.426,1.643-2.658,2.545-2.88,3.6c-0.339,1.614,0.688,3.188,0.72,4.8
		c0.396,19.467-14.374,39.647-28.8,44.4c-2.343,3.312-5.845,6.009-5.76,11.04c-4.191,1.217-13.807,1.426-12.72,8.4
		c0.87,5.59,7.323,1.118,11.279,0.72c0.856,3.808,5.311,2.295,6.721,5.28c1.585,3.356-0.921,8.552,1.92,11.76
		c-1.67,0.074-5.599-0.887-6.48,1.2c2.213,4.488,6.128-0.292,9.12-0.721c1.368-0.008,0.356,2.363,1.92,2.16
		c1.717-0.283,0.944-3.056,2.641-3.359c1.127,2.855,6.675,8.146,0.479,9.359c-1.326-0.193-0.618-2.422-1.44-3.12
		c-6.638-6.97-11.505,2.226-14.159,7.44c4.006,2.431,6.081-1.882,9.359-0.72c1.121-0.959,1.179-2.981,2.88-3.36
		c1.142,2.299,3.401,3.479,6,4.32c0.534-0.037,0.543-2.374,1.681-1.681c-0.878,3.808,0.598,6.875,1.68,12c-17.68,0-35.36,0-53.04,0
		c1.454-1.506,3.35-2.57,4.561-4.319c-0.499-1.803-3.188-3.328-4.08-5.521c-1.067-0.106-1.271,0.65-1.92,0.96
		c-1.006-0.969-1.923-3.014-3.601-1.92c0.074,0.727,0.743,0.857,0.48,1.92c-1.288,1.391-4.728,0.06-6,0.96
		c0.721,3.839,4.175,4.945,5.76,7.92c-19.36,0-38.72,0-58.08,0c-3.252-5.868-6.848-11.392-9.6-17.76
		c-2.118,7.002-5.822,12.418-9.6,17.76c-23.44-0.319-48.159,0.64-70.8-0.479c0-0.16,0-0.32,0-0.48
		c14.905,0.391,24.163-6.79,37.44-8.399c5.653-0.686,10.706-3.161,15.6-3.601c1.652-0.147,2.416,1.045,4.32,0.96
		c11.399-0.507,15.842-12.501,25.92-12.479c1.235,0.002,2.117,0.92,3.36,0.72c4.783-0.769,4.803-10.995,7.44-15.12
		c0.211,0.669,0.299,1.461,0.72,1.92c3.168-11.04-5.646-20.081-3.6-28.08c6.546-0.804,1.477-14.031,4.32-20.64
		c-5.557-6.949,3.438-10.835,3.36-17.52c-0.015-1.32-0.72-2.074-0.48-3.36c0.438-2.354,3.95-2.694,3.84-5.04
		c-0.127-2.704-6.727-6.919-10.32-5.521c-5.322,2.072-5.209,13.604-11.28,14.881c-2.412-9.544-5.487-26.817-0.72-35.28
		c5.56-9.871,14.373-21.094,23.76-26.64c4.434,4.15,3.664-5.673,8.4-5.52c7.981,0.257,0.785,12.377,8.4,12.24
		c-0.189-16.698,13.534-16.632,20.64-6.48c1.199,1.714,2.122,6.905,5.04,6c4.696-1.456-3.586-9.44-4.56-9.6
		c0.83,0.085,1.277,0.281,1.92-0.24c0.357-2.997-3.379-10.546-3.84-14.64c9.424,3.891-1.35-4.333,0-8.4
		c0.489-1.474,2.258-0.786,3.84-2.4c3.321-3.388,3.811-10.117,1.92-13.92c1.36-2.119,1.179-3.748,2.16-5.28
		c3.38-5.278,16.751-10.872,25.44-9.84c15.45,1.834,30.432,9.735,41.28,14.88c2.229-1.756,0.153-4.5-0.96-6.24
		c0.535-1.145,1.445-1.914,1.92-3.12c-11.144-10.119,10.723-10.015,15.12-14.88c3.87-4.282-2.153-12.079-4.08-15.36
		c-2.077-3.536-7.208-6.684-12-10.08c-4.4-3.119-6.957-8.6-11.761-10.56c-3.149-1.285-8.075,0.921-12,0.72
		c-21.517-1.103-46.882-3.249-65.52-0.72c5.286-10.014,12.826-17.919,23.04-21.84c10.511-4.035,26.282-6.82,39.6-5.52
		c10.229,0.998,15.356,4.691,23.04,8.4c12.957,6.253,30.759,10.062,39.601,19.44c5.175,5.488,8.519,15.703,14.399,21.36
		c2.079,2,7.314,2.544,9.36,4.32c11.483,9.963,12.205,34.88,12,54c-0.086,7.96-5.677,15.685-5.28,25.68
		c0.203,5.119-0.52,9.433-0.96,14.16c-0.543,5.827,1.893,11.545,1.68,16.8c-0.168,4.184-3.018,10.218-4.079,14.4
		c-2.426,9.551-7.698,21.457-15.841,24.479c-2.974,1.104-4.992-0.023-8.399,0.721c-6.898,1.506-10.619,11.647-12.48,18
		c-2.788,9.518-1.69,18.514-2.64,30.239c-0.49,6.058-3.353,14.623-2.16,20.4c1.403,6.797,11.883,9.09,16.56,13.92
		c1.24,1.28,2.49,4.759,4.08,4.8c1.531,0.04,2.713-2.508,4.561-2.64C267.91,306.716,276.304,312.92,282.479,313.68z M166.56,159.12
		c-2.612,3.134,0.657,4.809,1.681,6.72c2.402,4.489,4.694,9.592,8.16,15.36c6.217,10.347,10.311,24.131,1.92,33.359
		c0.42,0.22,1.197,0.083,1.439,0.48c-0.634,0.886-1.919,1.121-2.64,1.92c2.59,4.603-0.291,13.267,6.72,14.16
		c1.682-2.14,4.184-0.519,6.72-1.68c1.418-4.994,2.456-9.918,2.641-15.601c4.253-5.094,7.386-11.524,7.2-20.399
		c0.583-1.017,1.69-1.51,2.399-2.4c2.424-6.678-5.828-7.169-3.359-13.68c0.72,0,1.439,0,2.159,0c0.677-1.968,0.857-3.61-0.239-5.28
		c0.498-0.462,1.162-0.758,1.68-1.2c-0.655-0.544-0.45-1.949-0.48-3.12c3.17-1.489,2.06-4.974,2.881-8.16
		c1.178-0.218,0.914,1.006,1.92,0.96c0.437-1.002,1.957-0.922,2.159-2.159c-1.083-5.901-8.59-7.85-14.399-7.92
		c-13.066-0.16-28.574-1.105-36.72-8.88C159.51,148.42,164.448,153.042,166.56,159.12z M129.84,145.44
		c-8.595-0.635-5.778,9.813-0.72,10.8c-0.698,1.955,0.794,5.628-1.68,7.68c-4,1.396-15.618-1.439-16.32,3.6
		c-1.09,7.823,10.666,3.634,14.4,3.841c4.356,0.24,5.867,3.55,8.88,4.8c1.542-1.507,1.683-3.644,2.88-5.04
		c1.33,0.431,2.291,1.229,4.32,0.96c2.396-5.765,11.845-4.476,12.72-11.76c-2.742-0.68-8.969,1.11-11.76-1.2
		C142.45,151.797,136.757,145.951,129.84,145.44z M112.32,153.36c4.335,0.178,3.314-8.217-0.48-7.44
		C108.545,146.595,109.131,153.229,112.32,153.36z M81.6,186c2.132-6.508,8.78-8.5,10.32-15.6
		C85.688,171.415,79.852,178.597,81.6,186z M104.4,174.48c0.132,1.423,5.823,0.74,4.56,0c0.754-0.121,0.98,0.565,1.2-0.24
		C108.044,172.646,106.649,174.222,104.4,174.48z M89.76,186c3.537-2.708,8.113-6.921,10.08-9.6
		C95.434,173.189,85.159,181.161,89.76,186z M174.24,191.52c2.182-0.021,0.855,3.465,3.6,2.881
		c-0.04-6.263-4.142-10.862-8.16-11.521C170.395,186.565,173.327,188.033,174.24,191.52z M116.16,183.84
		c-6.081,0.221-16.63,0.124-19.44,5.04c10.793,2.339,27.661,1.123,32.64,7.68c-1.447,1.113-5.567-0.446-6.24,1.44
		c0.191,2.448,6.643,2.398,7.44,1.2c13.582,0.688,23.872,10.87,36.959,7.439c2.728,2.914,5.993-0.421,4.08-4.08
		C150.964,200.602,138.099,183.043,116.16,183.84z M167.04,186.24c0.464,0.569,1.217,0.569,1.68,0
		C168.646,184.854,167.291,185.356,167.04,186.24z M88.8,191.28c0.35,3.88,8.092,2.632,7.68-1.92
		C94.286,187.217,88.521,188.185,88.8,191.28z M112.8,202.56c1.915,0.663,4.476,0.795,6.48,0.24
		C117.649,202.4,114.004,200.374,112.8,202.56z M133.92,211.92c1.565-0.624,2.118-3.442,2.16-4.8
		c-2.818-3.422-10.575-3.186-15.6-3.601C124.615,206.665,129.884,208.676,133.92,211.92z M107.52,217.92
		c-3.101,7.159,7.136,3.326,11.52,3.36c0.528-0.557-0.332-1.078-0.72-1.44c0.422-0.138,1.41,0.29,1.44-0.24
		C116.76,217.85,111.998,216.802,107.52,217.92z M200.64,222.24c0.014-0.787,0.683-0.918,0.48-1.92
		C197.841,215.665,193.886,224.199,200.64,222.24z M195.84,224.4c0.421,0.553,0.898,0.878,1.68,0.479
		C197.378,224.099,196.183,223.67,195.84,224.4z M184.32,260.88c0.632-0.807,0.003-1.957-0.721-2.16
		C183.551,259.729,183.514,260.727,184.32,260.88z M170.64,262.56c0.636,1.596,3.854,0.865,3.84-0.96
		C173.826,260.225,170.754,261.165,170.64,262.56z M175.92,280.08c-0.17,0.89,0.41,1.03,0.24,1.92
		c1.121-0.158,1.762-0.799,1.92-1.92C177.62,278.771,176.699,279.774,175.92,280.08z M181.68,283.68
		c0.763,0.361,1.953,0.361,1.92-0.72C182.984,282.107,181.741,282.642,181.68,283.68z M136.8,293.76
		c0.167,3.341,2.691,1.634,5.52,2.641c5.472,1.945,7.546,10.017,12.48,2.159c-0.053-1.696-0.757-2.049-0.72-3.359
		C150.045,292.032,141.79,290.076,136.8,293.76z M197.28,304.8c0.598-0.441,1.732-0.348,1.92-1.2
		C198.315,303.605,196.913,304.339,197.28,304.8z M199.68,306.72c1.34-0.021,1.956-0.764,2.16-1.92
		c-0.209-0.352-0.359-0.761-0.96-0.72C200.758,305.237,199.694,305.454,199.68,306.72z"/>
	<path fill-rule="evenodd" clip-rule="evenodd" fill="#6C6C6C" d="M199.2,303.6c-0.188,0.853-1.322,0.759-1.92,1.2
		C196.913,304.339,198.315,303.605,199.2,303.6z"/>
</g>
</svg>
